<svg xmlns="http://www.w3.org/2000/svg" viewBox="0 0 64 64" fill="none">
  <!-- Background -->
  <rect width="64" height="64" rx="14" fill="#0f172a"/>
  
  <!-- Left brace { -->
  <path d="M20 14 C20 14 14 14 14 22 L14 28 C14 32 10 32 10 32 C10 32 14 32 14 36 L14 42 C14 50 20 50 20 50" 
        stroke="#22d3ee" stroke-width="4" stroke-linecap="round" fill="none"/>
  
  <!-- Right brace } -->
  <path d="M44 14 C44 14 50 14 50 22 L50 28 C50 32 54 32 54 32 C54 32 50 32 50 36 L50 42 C50 50 44 50 44 50" 
        stroke="#22d3ee" stroke-width="4" stroke-linecap="round" fill="none"/>
  
  <!-- Center dots -->
  <circle cx="32" cy="24" r="3" fill="#4ade80"/>
  <circle cx="32" cy="32" r="3" fill="#4ade80"/>
  <circle cx="32" cy="40" r="3" fill="#4ade80"/>
</svg>
